<?xml version="1.0" standalone="no"?>
<!DOCTYPE svg PUBLIC "-//W3C//DTD SVG 20010904//EN"
 "http://www.w3.org/TR/2001/REC-SVG-20010904/DTD/svg10.dtd">
<svg version="1.0" xmlns="http://www.w3.org/2000/svg"
 width="500.000000pt" height="500.000000pt" viewBox="0 0 500.000000 500.000000"
 preserveAspectRatio="xMidYMid meet">
<metadata>
Created by potrace 1.14, written by Peter Selinger 2001-2017
</metadata>
<g transform="translate(0.000000,500.000000) scale(0.100000,-0.100000)"
fill="#000000" stroke="none">
<path d="M2407 4924 c-1 -1 -41 -5 -89 -9 -47 -3 -95 -7 -105 -9 -10 -2 -40
-7 -68 -10 -81 -11 -98 -15 -222 -46 -311 -80 -585 -211 -838 -401 -245 -183
-467 -427 -609 -669 -22 -36 -46 -76 -55 -90 -8 -14 -16 -27 -17 -30 0 -3 -23
-52 -51 -110 -28 -58 -58 -127 -68 -155 -9 -27 -21 -59 -25 -70 -8 -18 -33
-93 -35 -105 -1 -3 -7 -23 -13 -45 -21 -68 -57 -254 -66 -335 -3 -25 -8 -65
-11 -90 -8 -61 -8 -341 -1 -415 14 -133 16 -151 31 -225 3 -14 8 -38 11 -55
37 -209 148 -499 272 -714 235 -409 626 -767 1056 -966 134 -62 343 -135 456
-160 96 -21 175 -35 223 -40 32 -4 68 -9 80 -12 50 -12 407 -10 512 3 165 20
197 26 329 60 330 84 631 234 901 449 134 106 326 300 395 399 8 12 20 27 27
34 20 21 138 202 167 257 15 28 31 57 37 65 42 67 138 305 175 435 11 36 25
94 30 115 3 14 7 33 10 42 12 39 35 173 40 237 3 31 7 72 10 91 5 48 5 323 -1
385 -4 46 -7 75 -21 175 -21 147 -96 417 -150 538 -71 159 -135 280 -208 392
-378 582 -1001 975 -1693 1065 -93 13 -408 27 -416 19z"/>
</g>
</svg>
